<svg width="34" height="31" viewBox="0 0 34 31" fill="none" xmlns="http://www.w3.org/2000/svg">
<path d="M8.66667 8.66667H25.3333H8.66667ZM8.66667 15.3333H15.3333H8.66667ZM17 28.6667L10.3333 22H5.33333C4.44928 22 3.60143 21.6488 2.97631 21.0237C2.35119 20.3986 2 19.5507 2 18.6667V5.33333C2 4.44928 2.35119 3.60143 2.97631 2.97631C3.60143 2.35119 4.44928 2 5.33333 2H28.6667C29.5507 2 30.3986 2.35119 31.0237 2.97631C31.6488 3.60143 32 4.44928 32 5.33333V18.6667C32 19.5507 31.6488 20.3986 31.0237 21.0237C30.3986 21.6488 29.5507 22 28.6667 22H23.6667L17 28.6667Z" fill="#EBE5FF"/>
<path d="M8.66667 8.66667H25.3333M8.66667 15.3333H15.3333M17 28.6667L10.3333 22H5.33333C4.44928 22 3.60143 21.6488 2.97631 21.0237C2.35119 20.3986 2 19.5507 2 18.6667V5.33333C2 4.44928 2.35119 3.60143 2.97631 2.97631C3.60143 2.35119 4.44928 2 5.33333 2H28.6667C29.5507 2 30.3986 2.35119 31.0237 2.97631C31.6488 3.60143 32 4.44928 32 5.33333V18.6667C32 19.5507 31.6488 20.3986 31.0237 21.0237C30.3986 21.6488 29.5507 22 28.6667 22H23.6667L17 28.6667Z" stroke="#4B05AD" stroke-width="3.33333" stroke-linecap="round" stroke-linejoin="round"/>
</svg>
