<?xml version="1.0" standalone="no"?>
<!DOCTYPE svg PUBLIC "-//W3C//DTD SVG 20010904//EN"
 "http://www.w3.org/TR/2001/REC-SVG-20010904/DTD/svg10.dtd">
<svg version="1.0" xmlns="http://www.w3.org/2000/svg"
 width="1107.000000pt" height="1434.000000pt" viewBox="0 0 1107.000000 1434.000000"
 preserveAspectRatio="xMidYMid meet">

<g transform="translate(0.000000,1434.000000) scale(0.100000,-0.100000)"
fill="#ffffff" stroke="none">
<path d="M3261 11263 c-34 -7 -98 -48 -115 -75 -47 -72 -34 -188 27 -245 96
-88 244 -58 301 61 46 98 -11 219 -118 251 -51 15 -54 16 -95 8z"/>
<path d="M2294 11130 c-74 -37 -104 -90 -104 -179 1 -62 26 -109 78 -146 38
-26 53 -30 106 -30 52 0 70 5 103 28 22 15 50 46 63 69 87 156 -86 337 -246
258z"/>
<path d="M7630 11036 c-46 -30 -65 -53 -79 -95 -51 -153 87 -291 240 -240 89
30 143 130 119 218 -12 46 -59 105 -101 127 -44 22 -137 17 -179 -10z"/>
<path d="M8480 10884 c-59 -24 -83 -42 -110 -82 -78 -118 -5 -270 140 -289
187 -25 278 238 120 343 -40 27 -117 41 -150 28z"/>
<path d="M3919 10666 c-158 -56 -226 -230 -152 -387 24 -52 40 -71 84 -102
172 -118 394 -32 440 171 29 126 -54 273 -178 318 -48 17 -147 17 -194 0z"/>
<path d="M7069 10653 c-48 -7 -131 -66 -166 -116 -60 -88 -68 -188 -24 -280
63 -130 212 -190 352 -142 65 22 134 89 159 153 43 113 18 232 -65 311 -72 68
-150 90 -256 74z"/>
<path d="M2076 10360 c-34 -11 -92 -63 -112 -102 -18 -35 -18 -121 0 -157 36
-69 132 -120 199 -106 102 21 163 101 155 200 -6 67 -25 104 -73 137 -44 31
-120 44 -169 28z"/>
<path d="M3114 10329 c-72 -27 -147 -103 -170 -171 -41 -121 -16 -243 69 -326
195 -192 517 -59 517 213 0 215 -215 362 -416 284z"/>
<path d="M7809 10170 c-85 -15 -167 -75 -217 -159 -24 -41 -27 -56 -27 -141 1
-106 10 -132 72 -201 156 -172 431 -121 512 95 43 115 16 232 -73 322 -71 70
-168 101 -267 84z"/>
<path d="M8706 10046 c-137 -51 -170 -219 -63 -313 44 -38 105 -57 158 -48 47
8 113 54 134 94 22 44 20 148 -5 188 -43 72 -146 108 -224 79z"/>
<path d="M6235 10035 c-73 -27 -135 -84 -174 -159 -32 -61 -36 -77 -36 -145 0
-68 4 -85 35 -146 27 -54 47 -78 91 -110 72 -53 128 -69 222 -63 172 11 291
141 291 318 0 126 -58 226 -165 285 -46 25 -67 29 -139 32 -57 2 -98 -2 -125
-12z"/>
<path d="M4650 9971 c-92 -28 -179 -112 -201 -194 -14 -54 -7 -163 15 -204 70
-137 225 -197 366 -144 187 70 240 323 98 463 -74 72 -190 105 -278 79z"/>
<path d="M2629 9658 c-58 -15 -129 -76 -163 -142 -102 -196 57 -426 279 -403
145 15 249 131 250 277 0 188 -177 319 -366 268z"/>
<path d="M3940 9561 c-178 -58 -279 -239 -225 -403 62 -190 265 -284 441 -204
142 65 210 195 183 353 -12 77 -24 99 -82 162 -58 63 -127 94 -217 97 -41 2
-86 0 -100 -5z"/>
<path d="M7018 9554 c-121 -37 -238 -158 -274 -281 -47 -162 35 -357 187 -446
199 -117 460 -37 562 173 30 60 32 72 32 170 0 98 -2 110 -32 170 -34 70 -112
154 -174 185 -85 45 -211 57 -301 29z"/>
<path d="M8187 9470 c-88 -22 -150 -72 -188 -155 -67 -141 -13 -299 127 -370
135 -68 302 -15 372 119 22 43 27 64 27 131 0 67 -5 88 -27 131 -57 109 -194
172 -311 144z"/>
<path d="M5386 9300 c-76 -27 -113 -53 -169 -118 -36 -42 -49 -69 -62 -124
-43 -173 28 -335 181 -413 54 -27 68 -30 159 -30 93 0 104 2 161 32 161 84
232 266 171 436 -27 74 -47 102 -110 155 -91 75 -224 100 -331 62z"/>
<path d="M4490 8849 c-123 -24 -230 -118 -268 -233 -73 -221 54 -435 283 -477
165 -30 346 79 395 238 65 211 -50 420 -259 469 -63 15 -86 16 -151 3z"/>
<path d="M3310 8834 c-78 -27 -146 -88 -182 -163 -105 -218 47 -463 288 -463
126 0 228 63 287 176 27 53 31 72 31 141 1 71 -3 88 -32 147 -21 43 -48 78
-77 102 -84 70 -215 94 -315 60z"/>
<path d="M6200 8691 c-97 -32 -178 -99 -223 -185 -29 -57 -32 -68 -32 -161 0
-95 2 -105 34 -169 39 -75 99 -132 177 -167 38 -18 69 -23 139 -23 83 -1 96 2
157 32 43 21 83 51 113 84 58 65 69 87 85 171 30 164 -48 320 -196 393 -47 23
-73 28 -143 31 -47 1 -97 -1 -111 -6z"/>
<path d="M7550 8658 c-101 -15 -202 -99 -246 -204 -21 -49 -16 -204 8 -249 28
-53 95 -120 149 -150 48 -27 63 -30 144 -30 79 0 97 4 147 28 65 32 120 89
154 162 36 77 34 182 -6 262 -69 138 -195 203 -350 181z"/>
<path d="M5360 8144 c-207 -44 -380 -210 -444 -423 -24 -81 -21 -231 5 -312
69 -208 205 -344 408 -405 77 -23 236 -23 316 1 198 58 349 213 411 421 23 76
23 210 1 285 -36 120 -77 190 -159 272 -148 147 -339 204 -538 161z"/>
<path d="M6733 7875 c-147 -46 -242 -165 -251 -318 -5 -86 8 -134 60 -218 77
-123 259 -184 403 -135 137 46 245 194 245 334 0 92 -67 223 -143 279 -88 65
-217 89 -314 58z"/>
<path d="M3928 7853 c-206 -77 -256 -350 -91 -492 130 -111 325 -90 423 46 86
120 77 259 -25 371 -72 80 -206 113 -307 75z"/>
<path d="M7456 7109 c-77 -31 -139 -89 -170 -159 -40 -89 -44 -153 -15 -242
43 -135 159 -218 303 -218 185 0 321 135 321 320 0 65 -5 85 -33 142 -38 78
-97 131 -177 159 -71 25 -165 24 -229 -2z"/>
<path d="M4565 7086 c-146 -36 -246 -144 -275 -296 -20 -103 19 -222 98 -303
227 -234 616 -77 616 248 0 176 -117 317 -292 354 -64 13 -82 13 -147 -3z"/>
<path d="M6233 7089 c-112 -22 -201 -89 -256 -194 -30 -56 -32 -67 -32 -160 0
-93 2 -104 32 -161 73 -141 232 -222 380 -195 156 29 267 138 293 287 36 207
-86 385 -289 424 -60 11 -69 11 -128 -1z"/>
<path d="M3370 7021 c-102 -23 -197 -99 -229 -185 -31 -84 -35 -137 -16 -217
15 -60 25 -79 71 -129 73 -78 133 -104 239 -105 67 0 89 4 136 27 73 36 120
84 156 155 38 79 40 192 3 268 -35 71 -114 148 -175 168 -61 21 -138 28 -185
18z"/>
<path d="M5415 6510 c-72 -28 -144 -102 -174 -178 -20 -52 -23 -73 -19 -139 7
-100 33 -158 99 -217 131 -118 315 -115 443 7 73 70 100 141 94 247 -4 55 -12
89 -31 126 -32 63 -115 138 -176 159 -62 21 -174 19 -236 -5z"/>
<path d="M7129 6327 c-75 -28 -124 -73 -166 -152 -23 -42 -27 -63 -27 -125 0
-62 4 -84 26 -125 57 -107 132 -156 248 -163 63 -4 85 -1 124 17 121 53 179
142 180 271 0 120 -55 208 -164 265 -45 24 -171 30 -221 12z"/>
<path d="M8157 6286 c-80 -29 -154 -112 -178 -201 -55 -202 162 -400 360 -330
121 42 191 139 191 265 0 121 -72 227 -180 265 -52 18 -142 19 -193 1z"/>
<path d="M3691 6200 c-107 -39 -181 -109 -235 -220 -27 -58 -31 -75 -31 -155
0 -73 4 -100 23 -140 49 -107 102 -165 192 -214 283 -152 620 86 578 408 -16
128 -101 241 -228 307 -75 38 -216 45 -299 14z"/>
<path d="M6229 6175 c-87 -28 -154 -86 -200 -175 -18 -33 -25 -66 -28 -123 -3
-71 0 -84 28 -141 89 -181 285 -245 457 -149 53 30 109 92 136 152 31 68 28
195 -6 265 -31 63 -100 130 -162 157 -59 27 -166 33 -225 14z"/>
<path d="M2569 6096 c-123 -26 -207 -126 -217 -256 -4 -58 -1 -75 23 -129 99
-219 393 -225 503 -11 31 60 33 71 29 136 -3 57 -10 82 -36 128 -38 66 -112
121 -176 131 -22 4 -47 8 -55 10 -8 2 -40 -2 -71 -9z"/>
<path d="M4814 5830 c-101 -21 -182 -83 -229 -176 -25 -50 -30 -71 -30 -139 0
-73 4 -88 35 -149 59 -117 176 -183 309 -174 263 19 392 340 216 536 -72 80
-199 123 -301 102z"/>
<path d="M7900 5587 c-92 -26 -180 -111 -211 -204 -16 -49 -7 -170 16 -218 25
-51 98 -125 150 -150 31 -15 61 -20 130 -20 82 0 95 3 145 31 215 121 208 428
-12 540 -59 30 -154 39 -218 21z"/>
<path d="M7022 5436 c-124 -41 -194 -138 -194 -270 0 -85 16 -128 69 -186 53
-60 121 -90 205 -90 111 0 193 48 248 144 26 45 30 61 30 132 0 87 -15 128
-72 193 -62 71 -194 107 -286 77z"/>
<path d="M8848 5371 c-62 -40 -82 -79 -81 -162 0 -79 21 -115 87 -154 106 -62
249 -3 275 115 37 166 -139 291 -281 201z"/>
<path d="M2907 5335 c-75 -28 -126 -74 -164 -152 -34 -68 -35 -76 -31 -151 6
-98 44 -173 116 -225 166 -122 381 -62 469 130 22 47 25 65 21 127 -8 114 -68
204 -171 256 -51 25 -71 30 -131 29 -39 0 -88 -7 -109 -14z"/>
<path d="M2070 5249 c-70 -29 -129 -106 -130 -169 -1 -121 117 -217 234 -190
46 10 105 56 126 96 21 42 18 142 -5 182 -42 70 -155 111 -225 81z"/>
<path d="M3877 5029 c-80 -19 -154 -75 -190 -143 -18 -33 -22 -58 -22 -131 0
-104 18 -149 81 -205 116 -102 284 -99 389 5 108 109 108 292 1 399 -64 63
-175 96 -259 75z"/>
<path d="M8623 4710 c-44 -10 -99 -54 -120 -93 -25 -49 -22 -148 7 -190 40
-59 86 -82 161 -82 55 0 72 4 106 28 53 37 83 92 83 153 -1 120 -121 213 -237
184z"/>
<path d="M7768 4571 c-75 -48 -108 -145 -75 -224 19 -45 89 -105 132 -113 126
-23 228 58 227 181 -1 115 -70 185 -185 185 -41 0 -63 -6 -99 -29z"/>
<path d="M2256 4530 c-34 -10 -91 -63 -112 -102 -8 -15 -14 -50 -14 -78 0 -59
15 -93 62 -136 86 -81 227 -62 288 39 24 39 27 144 6 185 -42 80 -139 119
-230 92z"/>
<path d="M3005 4236 c-56 -24 -115 -112 -115 -171 0 -60 60 -148 117 -171 74
-32 180 -6 220 53 57 84 57 152 0 236 -40 59 -149 85 -222 53z"/>
</g>
</svg>
