<svg width="127" height="37" viewBox="0 0 127 37" fill="none" xmlns="http://www.w3.org/2000/svg">
<path d="M69.0123 24.1446C69.0123 28.035 64.1433 27.804 64.1433 27.804H59.3006V20.7446H64.1696C69.1562 20.7162 69.0123 24.1446 69.0123 24.1446ZM59.3006 9.99742H62.9883C66.8199 10.2 66.6761 13.051 66.6761 13.051C66.6761 16.5948 62.4412 16.6536 62.4412 16.6536H59.3006V9.99742ZM68.1187 18.0659C68.1187 18.0659 71.4316 16.6536 71.4033 12.8787C71.4033 12.8787 71.922 6.71289 63.738 5.96318H54.6909V31.7815H65.0652C65.0652 31.7815 73.7395 31.8099 73.7395 24.4911C73.7659 24.5195 73.9685 19.5349 68.1187 18.0659ZM44.6914 0.919876H82.813V36.8531H44.6914V0.919876Z" fill="#616161"/>
<path d="M25.0606 24.1446C25.0606 28.035 20.1916 27.804 20.1916 27.804H15.3225V20.7446H20.1916C25.2065 20.7162 25.0606 24.1446 25.0606 24.1446ZM15.3225 9.99742H19.0103C22.8419 10.2 22.698 13.051 22.698 13.051C22.698 16.5948 18.4632 16.6536 18.4632 16.6536H15.3225V9.99742ZM24.1387 18.0659C24.1387 18.0659 27.4516 16.6536 27.4232 12.8787C27.4232 12.8787 27.9419 6.71289 19.758 5.96318H10.7392V31.7815H21.1135C21.1135 31.7815 29.7878 31.8099 29.7878 24.4911C29.7878 24.5195 29.9884 19.5349 24.1387 18.0659ZM0.713379 0.919876H38.835V36.8531H0.713379V0.919876Z" fill="#616161"/>
<path d="M118.986 7.83542V12.6194C118.986 12.6194 114.318 9.76643 109.189 9.70969C109.189 9.70969 99.5928 9.50706 99.1613 18.9007C99.1613 18.9007 98.8148 27.5446 109.074 28.035C109.074 28.035 113.396 28.5537 119.217 24.8355V29.7917C119.217 29.7917 111.379 34.4602 102.302 30.8575C102.302 30.8575 94.665 28.0633 94.3773 18.9291C94.3773 18.9291 94.0612 9.53543 104.233 6.39477C104.233 6.39477 106.942 5.35734 111.839 5.81932C111.839 5.79095 114.749 6.07868 118.986 7.83542ZM88.6431 36.8531H126.765V0.919876H88.6431V36.8531Z" fill="#616161"/>
</svg>
