<svg width="34" height="28" viewBox="0 0 34 28" fill="none" xmlns="http://www.w3.org/2000/svg">
<path d="M24.5 26H32V23C31.9999 22.0648 31.7085 21.1529 31.1662 20.3909C30.6239 19.629 29.8577 19.055 28.9741 18.7486C28.0905 18.4423 27.1334 18.4188 26.2359 18.6815C25.3384 18.9442 24.545 19.4801 23.966 20.2145M24.5 26H9.5H24.5ZM24.5 26V23C24.5 22.016 24.311 21.0755 23.966 20.2145M9.5 26H2V23C2.00007 22.0648 2.2915 21.1529 2.83379 20.3909C3.37608 19.629 4.14228 19.055 5.02588 18.7486C5.90947 18.4423 6.86657 18.4188 7.76411 18.6815C8.66165 18.9442 9.45504 19.4801 10.034 20.2145M9.5 26V23C9.5 22.016 9.689 21.0755 10.034 20.2145M10.034 20.2145C10.591 18.8224 11.5524 17.6292 12.794 16.7887C14.0356 15.9482 15.5006 15.4989 17 15.4989C18.4994 15.4989 19.9644 15.9482 21.206 16.7887C22.4476 17.6292 23.409 18.8224 23.966 20.2145M21.5 6.5C21.5 7.69347 21.0259 8.83807 20.182 9.68198C19.3381 10.5259 18.1935 11 17 11C15.8065 11 14.6619 10.5259 13.818 9.68198C12.9741 8.83807 12.5 7.69347 12.5 6.5C12.5 5.30653 12.9741 4.16193 13.818 3.31802C14.6619 2.47411 15.8065 2 17 2C18.1935 2 19.3381 2.47411 20.182 3.31802C21.0259 4.16193 21.5 5.30653 21.5 6.5ZM30.5 11C30.5 11.7956 30.1839 12.5587 29.6213 13.1213C29.0587 13.6839 28.2956 14 27.5 14C26.7044 14 25.9413 13.6839 25.3787 13.1213C24.8161 12.5587 24.5 11.7956 24.5 11C24.5 10.2044 24.8161 9.44129 25.3787 8.87868C25.9413 8.31607 26.7044 8 27.5 8C28.2956 8 29.0587 8.31607 29.6213 8.87868C30.1839 9.44129 30.5 10.2044 30.5 11ZM9.5 11C9.5 11.7956 9.18393 12.5587 8.62132 13.1213C8.05871 13.6839 7.29565 14 6.5 14C5.70435 14 4.94129 13.6839 4.37868 13.1213C3.81607 12.5587 3.5 11.7956 3.5 11C3.5 10.2044 3.81607 9.44129 4.37868 8.87868C4.94129 8.31607 5.70435 8 6.5 8C7.29565 8 8.05871 8.31607 8.62132 8.87868C9.18393 9.44129 9.5 10.2044 9.5 11Z" fill="#EBE5FF"/>
<path d="M24.5 26H32V23C31.9999 22.0648 31.7085 21.1529 31.1662 20.3909C30.6239 19.629 29.8577 19.055 28.9741 18.7486C28.0905 18.4423 27.1334 18.4188 26.2359 18.6815C25.3383 18.9442 24.545 19.4801 23.966 20.2145M24.5 26H9.5M24.5 26V23C24.5 22.016 24.311 21.0755 23.966 20.2145M23.966 20.2145C23.409 18.8224 22.4476 17.6292 21.206 16.7887C19.9644 15.9482 18.4994 15.4989 17 15.4989C15.5006 15.4989 14.0356 15.9482 12.794 16.7887C11.5524 17.6292 10.591 18.8224 10.034 20.2145M9.5 26H2V23C2.00007 22.0648 2.2915 21.1529 2.83379 20.3909C3.37608 19.629 4.14228 19.055 5.02588 18.7486C5.90947 18.4423 6.86657 18.4188 7.76411 18.6815C8.66165 18.9442 9.45504 19.4801 10.034 20.2145M9.5 26V23C9.5 22.016 9.689 21.0755 10.034 20.2145M21.5 6.5C21.5 7.69347 21.0259 8.83807 20.182 9.68198C19.3381 10.5259 18.1935 11 17 11C15.8065 11 14.6619 10.5259 13.818 9.68198C12.9741 8.83807 12.5 7.69347 12.5 6.5C12.5 5.30653 12.9741 4.16193 13.818 3.31802C14.6619 2.47411 15.8065 2 17 2C18.1935 2 19.3381 2.47411 20.182 3.31802C21.0259 4.16193 21.5 5.30653 21.5 6.5ZM30.5 11C30.5 11.7956 30.1839 12.5587 29.6213 13.1213C29.0587 13.6839 28.2956 14 27.5 14C26.7044 14 25.9413 13.6839 25.3787 13.1213C24.8161 12.5587 24.5 11.7956 24.5 11C24.5 10.2044 24.8161 9.44129 25.3787 8.87868C25.9413 8.31607 26.7044 8 27.5 8C28.2956 8 29.0587 8.31607 29.6213 8.87868C30.1839 9.44129 30.5 10.2044 30.5 11ZM9.5 11C9.5 11.7956 9.18393 12.5587 8.62132 13.1213C8.05871 13.6839 7.29565 14 6.5 14C5.70435 14 4.94129 13.6839 4.37868 13.1213C3.81607 12.5587 3.5 11.7956 3.5 11C3.5 10.2044 3.81607 9.44129 4.37868 8.87868C4.94129 8.31607 5.70435 8 6.5 8C7.29565 8 8.05871 8.31607 8.62132 8.87868C9.18393 9.44129 9.5 10.2044 9.5 11Z" stroke="#4B05AD" stroke-width="3" stroke-linecap="round" stroke-linejoin="round"/>
</svg>
