<svg width="166" height="37" viewBox="0 0 166 37" fill="none" xmlns="http://www.w3.org/2000/svg">
<path d="M153.774 29.5498C153.774 27.221 155.665 25.3315 157.993 25.3315C160.321 25.3315 162.21 27.221 162.21 29.5498C162.21 31.8787 160.321 33.7669 157.993 33.7669C155.665 33.7669 153.774 31.8787 153.774 29.5498Z" fill="#616161"/>
<path d="M19.2478 18.3746C19.2478 15.7028 18.7315 13.7206 17.6989 12.4292C16.6651 11.1391 15.099 10.4946 12.9936 10.4946H10.7539V26.8332H12.4674C14.806 26.8332 16.5198 26.1399 17.611 24.7484C18.7009 23.3594 19.2478 21.2344 19.2478 18.3746ZM27.2351 18.0963C27.2351 22.964 25.9266 26.7147 23.3097 29.3475C20.6928 31.9815 17.0141 33.2985 12.2722 33.2985H3.05811V4.13062H12.9154C17.4876 4.13062 21.0175 5.32798 23.505 7.72151C25.9913 10.1163 27.2351 13.5729 27.2351 18.0963Z" fill="#616161"/>
<path d="M52.7583 33.3036H60.0903V4.01367H52.7583V33.3036Z" fill="#616161"/>
<path d="M70.3864 22.3706C70.3864 24.2381 70.6305 25.6624 71.1175 26.6413C71.6058 27.6214 72.4234 28.1109 73.5732 28.1109C74.7108 28.1109 75.5151 27.6214 75.9838 26.6413C76.4525 25.6624 76.6856 24.2381 76.6856 22.3706C76.6856 20.5129 76.4488 19.1117 75.974 18.1657C75.498 17.2173 74.6865 16.7425 73.5355 16.7425C72.4102 16.7425 71.6058 17.2149 71.1175 18.1547C70.6305 19.0958 70.3864 20.5007 70.3864 22.3706ZM84.1483 22.3706C84.1483 25.9285 83.2156 28.7041 81.3457 30.6936C79.4771 32.6844 76.8614 33.6803 73.4988 33.6803C70.2741 33.6803 67.7071 32.6624 65.8019 30.6265C63.8942 28.5906 62.9409 25.8394 62.9409 22.3706C62.9409 18.8236 63.8747 16.0676 65.7446 14.1024C67.6145 12.1373 70.2362 11.1548 73.6123 11.1548C75.6983 11.1548 77.5438 11.6101 79.1428 12.5194C80.7429 13.4287 81.9782 14.7311 82.8459 16.4277C83.715 18.1218 84.1483 20.104 84.1483 22.3706Z" fill="#616161"/>
<path d="M87.0601 33.2974H94.3932V22.0877V11.5408H87.0601V33.2974Z" fill="#616161"/>
<path d="M87.0601 8.91082H94.3932V4.00781H87.0601V8.91082Z" fill="#616161"/>
<path d="M109.25 27.7505C110.24 27.7505 111.419 27.4991 112.794 26.9999V32.4741C111.806 32.9086 110.866 33.2199 109.972 33.4042C109.079 33.5909 108.03 33.6837 106.831 33.6837C104.369 33.6837 102.594 33.0649 101.504 31.8296C100.419 30.5944 99.8746 28.6977 99.8746 26.1382V17.1694H97.3066V11.545H99.8746V5.98903L107.264 4.70374V11.545H111.942V17.1694H107.264V25.6377C107.264 27.0462 107.927 27.7505 109.25 27.7505Z" fill="#616161"/>
<path d="M126.224 27.7505C127.214 27.7505 128.393 27.4991 129.768 26.9999V32.4741C128.781 32.9086 127.84 33.2199 126.946 33.4042C126.052 33.5909 125.007 33.6837 123.804 33.6837C121.343 33.6837 119.568 33.0649 118.48 31.8296C117.393 30.5944 116.849 28.6977 116.849 26.1382V17.1694H114.279V11.545H116.849V5.90481L124.237 4.70374V11.545H128.918V17.1694H124.237V25.6377C124.237 27.0462 124.899 27.7505 126.224 27.7505Z" fill="#616161"/>
<path d="M139.026 19.7195C139.126 18.5282 139.466 17.6555 140.047 17.0977C140.631 16.5411 141.351 16.2629 142.213 16.2629C143.152 16.2629 143.899 16.5753 144.453 17.2051C145.011 17.8313 145.302 18.6698 145.325 19.7195H139.026ZM149.366 13.7192C147.623 12.0104 145.15 11.1548 141.951 11.1548C138.589 11.1548 136.001 12.1373 134.187 14.1024C132.375 16.0676 131.468 18.8871 131.468 22.561C131.468 26.119 132.448 28.8628 134.403 30.7888C136.36 32.7149 139.107 33.6791 142.646 33.6791C144.345 33.6791 145.807 33.5632 147.033 33.3325C148.251 33.1043 149.43 32.6917 150.573 32.096L149.447 27.193C148.616 27.5323 147.825 27.7935 147.078 27.9656C145.999 28.2159 144.815 28.3416 143.526 28.3416C142.113 28.3416 140.997 27.9961 140.179 27.3053C139.361 26.6132 138.926 25.6588 138.876 24.4431H151.982V21.1024C151.982 17.8887 151.11 15.4268 149.366 13.7192Z" fill="#616161"/>
<path d="M36.963 19.7195C37.0631 18.5282 37.4036 17.6555 37.9845 17.0977C38.5668 16.5411 39.2883 16.2629 40.1513 16.2629C41.0887 16.2629 41.8356 16.5753 42.391 17.2051C42.9487 17.8313 43.238 18.6698 43.2637 19.7195H36.963ZM47.3049 13.7192C45.5608 12.0104 43.089 11.1548 39.8888 11.1548C36.5248 11.1548 33.9384 12.1373 32.1258 14.1024C30.3133 16.0676 29.4053 18.8871 29.4053 22.561C29.4053 26.119 30.3842 28.8628 32.342 30.7888C34.2974 32.7149 37.0448 33.6791 40.5832 33.6791C42.2823 33.6791 43.7444 33.5632 44.9699 33.3325C46.188 33.1043 47.3673 32.6917 48.5121 32.096L47.3843 27.193C46.5531 27.5323 45.7621 27.7935 45.0164 27.9656C43.9349 28.2159 42.7522 28.3416 41.4631 28.3416C40.051 28.3416 38.9344 27.9961 38.1166 27.3053C37.2975 26.6132 36.8631 25.6588 36.8131 24.4431H49.9194V21.1024C49.9194 17.8887 49.0479 15.4268 47.3049 13.7192Z" fill="#616161"/>
</svg>
