<svg width="34" height="27" viewBox="0 0 34 27" fill="none" xmlns="http://www.w3.org/2000/svg">
<path d="M2.13477 10.1667H32.1348H2.13477ZM8.80143 18.5H10.4681H8.80143ZM17.1348 18.5H18.8014H17.1348ZM7.13477 25.1667H27.1348C28.4608 25.1667 29.7326 24.6399 30.6703 23.7022C31.608 22.7646 32.1348 21.4928 32.1348 20.1667V6.83337C32.1348 5.50729 31.608 4.23552 30.6703 3.29784C29.7326 2.36016 28.4608 1.83337 27.1348 1.83337H7.13477C5.80868 1.83337 4.53691 2.36016 3.59923 3.29784C2.66155 4.23552 2.13477 5.50729 2.13477 6.83337V20.1667C2.13477 21.4928 2.66155 22.7646 3.59923 23.7022C4.53691 24.6399 5.80868 25.1667 7.13477 25.1667Z" fill="#EBE5FF"/>
<path d="M2.13477 10.1667H32.1348M8.80143 18.5H10.4681M17.1348 18.5H18.8014M7.13477 25.1667H27.1348C28.4608 25.1667 29.7326 24.6399 30.6703 23.7022C31.608 22.7646 32.1348 21.4928 32.1348 20.1667V6.83337C32.1348 5.50729 31.608 4.23552 30.6703 3.29784C29.7326 2.36016 28.4608 1.83337 27.1348 1.83337H7.13477C5.80868 1.83337 4.53691 2.36016 3.59923 3.29784C2.66155 4.23552 2.13477 5.50729 2.13477 6.83337V20.1667C2.13477 21.4928 2.66155 22.7646 3.59923 23.7022C4.53691 24.6399 5.80868 25.1667 7.13477 25.1667Z" stroke="#4B05AD" stroke-width="3.33333" stroke-linecap="round" stroke-linejoin="round"/>
</svg>
