<svg width="33" height="37" viewBox="0 0 33 37" fill="none" xmlns="http://www.w3.org/2000/svg">
<path d="M21.9375 27.375H31L28.4534 24.8284C28.1115 24.4864 27.8402 24.0803 27.6552 23.6334C27.4701 23.1865 27.3749 22.7076 27.375 22.2239V16.5C27.3753 14.2506 26.6782 12.0564 25.3799 10.2195C24.0815 8.3826 22.2456 6.99337 20.125 6.24306V5.625C20.125 4.66359 19.7431 3.74156 19.0633 3.06174C18.3834 2.38192 17.4614 2 16.5 2C15.5386 2 14.6166 2.38192 13.9367 3.06174C13.2569 3.74156 12.875 4.66359 12.875 5.625V6.24306C8.65188 7.73656 5.625 11.7658 5.625 16.5V22.2257C5.625 23.2008 5.23713 24.1379 4.54656 24.8284L2 27.375H11.0625M21.9375 27.375V29.1875C21.9375 30.6296 21.3646 32.0127 20.3449 33.0324C19.3252 34.0521 17.9421 34.625 16.5 34.625C15.0579 34.625 13.6748 34.0521 12.6551 33.0324C11.6354 32.0127 11.0625 30.6296 11.0625 29.1875V27.375M21.9375 27.375H11.0625" stroke="#4B05AD" stroke-width="3.625" stroke-linecap="round" stroke-linejoin="round"/>
</svg>
