<svg width="169" height="37" viewBox="0 0 169 37" fill="none" xmlns="http://www.w3.org/2000/svg">
<g clip-path="url(#clip0_788_1206)">
<path d="M22.3376 14.4136C22.0627 13.5376 21.2601 11.5686 21.0415 10.1148C20.559 6.89505 22.2423 4.77454 23.7882 4.28891C25.5231 3.80485 26.2008 4.67616 26.8722 6.70142C27.7404 9.78537 27.8373 13.8265 27.5452 19.6118C27.1658 27.5146 23.212 37.0584 13.3838 36.8601C4.89997 36.6743 1.14606 31.1794 0.755678 22.7957C0.571418 18.8436 0.854055 14.893 2.49054 9.30599C3.35875 6.31417 4.13326 5.24923 6.8269 4.67617C8.94433 4.28892 8.75382 6.50312 8.27443 9.11393C7.21884 14.893 6.72852 17.6834 7.1189 24.2401C7.49679 31.1794 10.6839 33.8792 14.1536 33.8792C19.3582 33.9791 21.6692 29.6429 22.6374 23.3719C23.401 18.3626 22.8248 15.9533 22.3376 14.4136ZM133.306 21.2577C135.333 21.2577 135.914 23.6545 135.43 25.1067C134.946 26.5496 133.214 28.1954 130.517 28.6747C129.936 27.2257 129.646 21.2577 133.306 21.2577ZM95.6325 24.5243C95.6325 22.8925 94.7597 21.5419 93.7087 21.5419C92.8312 21.5419 90.8152 22.5022 90.8152 25.5877C90.8152 28.0049 91.6741 29.151 92.0676 29.6429C94.8549 28.7716 95.6325 26.4527 95.6325 24.5243ZM65.6543 4.86823C65.5185 3.32235 64.3067 2.26991 62.6671 2.26991C60.8386 2.26991 59.1162 4.18898 59.2989 6.59993C59.416 8.18953 60.3529 9.49649 62.194 9.49649C64.3067 9.49805 65.848 7.08867 65.6543 4.86823ZM81.3274 10.5286C81.1603 7.83351 80.5076 6.6171 79.0601 6.71704C77.1409 6.83259 76.254 12.8709 76.6459 19.2183C76.8958 23.3594 77.5126 23.9981 78.0872 23.9575C79.1491 23.8935 81.6959 16.4951 81.3274 10.5286ZM145.258 20.6737C144.063 25.6283 140.442 32.9173 135.039 32.9173C133.788 32.9173 131.571 32.4317 131.571 31.1794C131.571 29.8287 140.058 29.6429 140.058 23.1814C140.058 20.7752 137.842 17.3977 134.563 17.3977C130.227 17.3977 125.996 22.1243 125.996 28.6763C125.996 34.5506 129.646 36.4791 133.308 36.4791C139.671 36.4791 143.526 31.2715 145.548 26.9384C146.516 29.8302 147.085 36.4791 149.504 36.4791C150.464 36.4791 151.143 35.9966 152.3 33.3983C155.185 26.9368 157.983 19.5166 161.84 19.5166C163.281 19.5166 162.418 22.1243 165.886 22.1243C167.521 22.1243 168.673 20.7752 168.673 19.2262C168.673 17.0073 166.652 15.2787 163.572 15.2787C154.51 15.2787 152.589 28.8684 151.142 28.8684C148.731 28.8684 149.502 17.977 147.764 17.977C146.221 17.9754 145.464 19.8133 145.258 20.6737ZM68.1621 32.2365C69.6066 32.2365 72.091 31.7681 74.046 28.6373C72.9279 26.1545 72.13 21.1374 72.0191 19.3105C71.4445 9.96807 75.0438 1.17998 78.9835 0.936385C81.8724 0.761498 84.1834 3.49568 84.4489 7.92563C85.1594 19.5666 81.2821 24.4259 79.3411 28.6185C79.669 30.244 82.4267 33.011 85.0282 33.011C85.9885 33.011 87.1503 32.5285 87.4423 32.1381C87.2487 31.4683 87.0519 30.6016 87.0519 29.3446C87.0519 22.599 91.3899 16.9105 95.15 16.9105C98.1372 16.9105 99.8721 20.861 99.8721 23.4687C99.8721 26.548 97.2675 29.0589 93.4152 31.4683C94.0929 32.1381 95.339 32.6253 96.4039 32.6253C101.902 32.6253 104.778 25.9734 106.908 19.8992C107.292 18.7405 107.972 17.1056 109.318 17.1056C111.63 17.1056 112.599 32.3333 116.443 32.3333C118.087 32.3333 119.433 28.9574 119.433 26.3622C119.433 24.4322 118.759 24.2385 118.759 21.4435C118.759 18.3626 120.398 15.7628 122.62 15.7628C123.968 15.7628 124.455 17.1056 124.455 18.7405C124.455 24.91 120.016 36.3807 113.471 36.3807C108.548 36.3807 108.932 27.8987 107.199 27.8987C105.262 27.8987 102.564 36.476 93.0326 36.476C91.4836 36.476 89.8486 35.7061 88.5026 34.1603C86.1931 35.7061 84.2599 36.3807 82.0426 36.3807C78.4807 36.3807 76.9348 32.7174 75.4935 32.7174C73.7555 32.7174 71.8333 36.476 66.0447 36.476C61.4195 36.476 60.6481 30.3143 59.0132 30.3143C57.5641 30.3143 55.3482 36.476 52.9404 36.476C48.8866 36.476 48.0278 25.7813 44.455 25.7813C41.6615 25.7813 32.831 36.643 30.4341 36.3948C29.4706 36.2948 29.0646 35.575 29.1661 34.61C29.302 33.2765 30.4497 29.7069 30.915 28.0189C31.6942 25.088 32.4094 21.876 32.8092 20.8517C33.2058 19.818 34.2754 19.0809 35.1343 19.1606C35.5668 19.2012 35.6964 20.0085 35.8307 20.6752C36.3179 23.0581 36.9972 25.4877 37.7639 25.4877C39.1177 25.4877 43.5884 16.9089 46.1899 16.9089C49.3754 16.9089 49.7564 30.4049 54.0912 30.4049C55.5403 30.4049 56.6037 28.6732 57.5641 26.5464C57.6624 22.9753 58.6259 17.8786 61.5163 17.8786C63.5416 17.8786 64.5066 22.4038 63.056 26.3606C63.0528 31.0794 66.1337 32.2365 68.1621 32.2365Z" fill="#616161"/>
</g>
<defs>
<clipPath id="clip0_788_1206">
<rect width="167.965" height="35.9332" fill="white" transform="translate(0.70459 0.9198)"/>
</clipPath>
</defs>
</svg>
